<svg width="197" height="20" viewBox="0 0 197 20" fill="none" xmlns="http://www.w3.org/2000/svg">
<path fill-rule="evenodd" clip-rule="evenodd" d="M113.017 0H111.026L114.345 19.4793H116.365L120.978 2.04796H121.032L125.674 19.4793H127.636L131.079 0H129.224L126.709 17.0495H126.655L122.177 0H119.858L115.409 17.0495H115.355L113.017 0ZM33.9572 5.39922H32.1301H32.1269L34.5757 19.4762H36.4564L39.5962 7.63651H39.6498L42.818 19.4762H44.7019L47.1506 5.39922H45.3235L43.8025 17.4566H43.7489L40.6091 5.39922H38.6716L35.5318 17.4566H35.4781L33.9572 5.39922ZM1.74503 10.8174H6.09656C9.0975 10.8174 10.7573 12.2121 10.7573 14.4747C10.7573 17.0654 9.12275 18.0973 6.39634 18.0973H1.74503V10.8174ZM1.74503 1.56525H6.2922C9.32155 1.56525 10.792 2.74228 10.792 5.3614C10.792 7.98052 9.4667 9.34373 6.44051 9.34373H1.74503V1.56525ZM0 19.5678H6.97065C10.7352 19.5678 12.3572 17.5009 12.3572 14.6104C12.3572 12.6034 11.42 10.8616 9.05963 10.2715V10.2178C11.461 9.75395 12.5371 7.89847 12.5371 5.3614C12.5371 1.95023 10.3282 0.0916015 6.64562 0.0916015H0V19.5678ZM136.627 5.47812H134.907V19.5551H136.627V5.47812ZM162.878 5.47812H164.598V19.5551H162.878V5.47812ZM171.647 5.47799H169.927H169.924V19.5487H171.644V11.3379C171.698 8.58307 173.278 6.50986 176.062 6.50986C178.845 6.50986 179.394 8.34009 179.394 10.7667V19.5518H181.114V10.4953C181.114 7.14098 180.158 5.06777 176.201 5.06777C174.209 5.06777 172.329 6.21324 171.701 7.90463H171.647V5.47799ZM194.276 9.63081L194.277 9.62765H195.996C196.816 6.85706 193.957 5.09941 191.145 5.09941C188.662 5.09941 185.85 6.19124 185.85 9.05649C185.85 11.4579 187.542 12.2215 189.779 12.8211L191.988 13.3134C193.544 13.6952 195.071 14.2411 195.071 15.8788C195.071 17.8447 192.834 18.5548 191.224 18.5548C188.933 18.5548 186.614 17.0779 187.384 15.0331H185.664C184.97 18.2676 187.867 20 191.142 20C193.761 20 196.791 18.8261 196.791 15.7715C196.791 13.3134 194.746 12.1679 192.78 11.8681L190.489 11.3506C189.318 11.0508 187.57 10.5049 187.57 8.9776C187.57 7.14737 189.372 6.54782 190.899 6.54782C192.861 6.54782 195.012 7.65424 194.277 9.62765H194.276V9.63081ZM81.2274 6.51634C83.1902 6.51634 85.3423 7.62394 84.6039 9.59933V9.60249H86.3237C87.1441 6.82874 84.2852 5.07109 81.4736 5.07109C78.9901 5.07109 76.1785 6.16292 76.1785 9.02817C76.1785 11.4264 77.8699 12.1932 80.1072 12.7928L82.3193 13.285C83.875 13.6669 85.4023 14.2128 85.4023 15.8505C85.4023 17.8133 83.165 18.5233 81.5556 18.5233C79.2615 18.5233 76.9453 17.0465 77.7153 15.0017H75.9955C75.2981 18.2361 78.1981 19.9685 81.4704 19.9685C84.0895 19.9685 87.1189 18.7947 87.1189 15.7401C87.1189 13.2819 85.0741 12.1364 83.1082 11.8366L80.8172 11.3191C79.6465 11.0193 77.8983 10.4734 77.8983 8.94613C77.8983 7.1159 79.7001 6.51634 81.2274 6.51634ZM22.6443 6.57618C25.9135 6.57618 27.2925 9.54557 27.2925 12.5181C27.2925 15.4907 25.9135 18.46 22.6443 18.46C19.3751 18.46 17.9993 15.4875 17.9993 12.5181C17.9993 9.54872 19.3783 6.57618 22.6443 6.57618ZM22.6443 5.14355C18.378 5.14355 16.2953 8.52001 16.2953 12.515C16.2953 16.5099 18.378 19.8895 22.6443 19.8895C26.9106 19.8895 28.9933 16.5131 28.9933 12.515C28.9933 8.51685 26.9106 5.14355 22.6443 5.14355ZM150.808 0.0757812H149.088H149.085V19.5519H150.805V14.2064L153.165 11.8271L157.946 19.5519H159.94L154.364 10.6848L159.587 5.47496H157.352L150.808 11.9944V0.0757812ZM73.531 7.61121C73.0419 7.28934 72.5086 7.07792 71.6944 7.07792C69.9999 7.07792 69.0469 8.6557 69.0469 11.3316V19.5708H67.305V5.52222H69.0469V7.26094C69.6054 6.13756 70.7667 5.30449 72.0668 5.30449C72.9724 5.30449 73.5531 5.51276 73.9727 5.72733L73.531 7.60805V7.61121ZM142.013 0.0789062H143.733V19.5551H142.013V0.0789062ZM97.3651 10.7036C97.2698 10.7629 97.1527 10.8304 97.0194 10.9073C95.8819 11.5636 93.5658 12.9 93.5658 15.5411H93.5784V15.5664C93.5784 17.0116 94.6229 19.7854 98.4285 19.7854C101.71 19.7854 102.95 17.4061 102.95 17.4061L104.752 19.5171H106.816C106.311 18.9333 103.856 16.087 103.856 16.087C103.856 16.087 104.948 14.0738 104.948 12.2688H103.455C103.455 13.4143 102.843 14.9226 102.843 14.9226L99.6402 11.0255C99.6402 11.0255 102.739 9.57393 102.739 6.91379C102.739 5.03938 101.139 3.79609 99.0123 3.79609C96.8854 3.79609 95.5569 5.08356 95.5569 6.93588C95.5569 8.29933 96.2601 9.23202 97.0004 10.214C97.122 10.3752 97.2445 10.5377 97.3651 10.7036ZM101.158 6.85068C101.158 8.47622 99.7648 9.30898 98.8216 9.87276L98.7093 9.93998C98.7093 9.93998 97.1599 8.27069 97.1599 6.84753C97.1599 5.59161 98.2108 5.02045 99.1574 5.02045C100.054 5.02045 101.155 5.57583 101.155 6.85068H101.158ZM98.4948 18.3306C97.04 18.3306 95.2761 17.3209 95.2761 15.4528C95.2761 13.5847 96.6361 12.6695 98.2297 11.7481C98.236 11.7576 98.2455 11.7671 98.2455 11.7671L102.051 16.33C102.051 16.33 101.01 18.3306 98.4979 18.3306H98.4948ZM56.7213 18.4569C59.1479 18.4569 60.2586 17.0653 60.814 15.0394H60.8172L62.4423 15.3487C61.666 18.2234 60.063 19.8864 56.7244 19.8864C52.294 19.8864 50.672 16.4815 50.672 12.5118C50.672 8.83875 52.2435 5.14043 56.7244 5.14043C61.2053 5.14043 62.7484 9.05649 62.6127 12.9725H52.3729C52.3981 15.4591 53.4552 18.4569 56.7213 18.4569ZM60.9087 11.5431C60.8267 8.9776 59.4761 6.57305 56.7213 6.57305C53.9412 6.57305 52.6411 9.00284 52.3729 11.5431H60.9087ZM134.907 0.0789062H136.627V2.83372H134.907V0.0789062ZM164.598 0.0789062H162.878V2.83372H164.598V0.0789062Z" fill="#231F20"/>
</svg>
