<svg id="EAW_logo_202" data-name="EAW logo 202" xmlns="http://www.w3.org/2000/svg" viewBox="0 0 218.96 42.04"><defs><style>.cls-1{fill:#fff;}</style></defs><title>EAW_logo_WHITE</title><polygon class="cls-1" points="204.82 0.03 196.13 29.44 196.04 29.44 189.16 0.03 172.74 0.03 166.06 29.44 165.87 29.44 157.85 0.03 143.33 0.03 156.22 41.95 173.98 41.95 180.28 16.07 180.47 16.07 186.68 41.95 205.3 41.95 218.96 0.03 204.82 0.03"/><polygon class="cls-1" points="6.24 0 61.93 0 58.11 24.34 9.42 24.34 7.68 35.41 39.81 35.41 34.59 33.19 35.63 26.55 42.27 26.55 41.85 29.18 56.73 35.41 55.69 42.05 0 42.05 3.81 17.7 52.51 17.7 54.25 6.64 22.12 6.64 27.35 8.85 26.3 15.49 19.66 15.49 20.08 12.86 5.2 6.64 6.24 0"/><path class="cls-1" d="M195.25,111l5.38-9,3,9ZM149,122.93l1.2-7.64h20.24l1.41-9H151.56L152.72,99h24.15l1.42-9H139l-6.59,41.92H183l7.64-12.13h14.83l3.34,12.13h15.72C220,118,214.85,103.74,211,90H193.18c-8.39,12.72-11.53,19.48-20.16,33Z" transform="translate(-70.97 -89.96)"/><path class="cls-1" d="M279.61,128.86a3.1,3.1,0,1,1,3.11,3.07A3.06,3.06,0,0,1,279.61,128.86Zm3.11,2.56a2.55,2.55,0,1,0-2.49-2.56A2.47,2.47,0,0,0,282.72,131.42Zm-.65-.78h-.53v-3.53h1.34c.84,0,1.25.31,1.25,1a.92.92,0,0,1-.91,1l1,1.56h-.6l-.93-1.53h-.62Zm.64-2c.46,0,.86,0,.86-.57s-.4-.52-.77-.52h-.73v1.09Z" transform="translate(-70.97 -89.96)"/></svg>